# xmcd
#
# Track frame offsets:
#	150
#	3525
#	12525
#	15294
#	21294
#	26249
#	31317
#	36587
#	42944
#	49235
#	54528
#	58803
#	66682
#	70057
#	79057
#	81826
#	87826
#	92781
#	97849
#	103145
#	109502
#	115793
#	121086
#	125361
#	133240
#
# Disc length: 1824 seconds
#
# Revision: 0
# Processed by: cddbd v1.5.2PL0 Copyright (c) Steve Scherf et al.
# Submitted via: EasyCDDAExtractor 15.2.5.1
#
DISCID=54071e19
DTITLE=Various Artist - 12 comptines au Far West
DYEAR=2018
DGENRE=
TTITLE0=C'est un curieux bonhomme
TTITLE1=Au clair de la lune
TTITLE2=Dans la ferme à Mathurin
TTITLE3=Le crapaud Fee-Fye
TTITLE4=Ani couni
TTITLE5=Bring back
TTITLE6=Petit poney va au marché
TTITLE7=Je suis un gars du Far West
TTITLE8=Trotte, petit cheval
TTITLE9=Teen little Indians
TTITLE10=Un jour dans sa cabane
TTITLE11=Le fermier dans son pré
TTITLE12=C'est un curieux bonhomme (instru)
TTITLE13=Au clair de la lune (instru)
TTITLE14=Dans la ferme à Mathurin (instru)
TTITLE15=Le crapaud Fee-Fye (instru)
TTITLE16=Ani couni (instru)
TTITLE17=Bring back (instru)
TTITLE18=Petit poney va au marché (instru)
TTITLE19=Je suis un gars du Far West (instru)
TTITLE20=Trotte, petit cheval (instru)
TTITLE21=Teen little Indians (instru)
TTITLE22=Un jour dans sa cabane (instru)
TTITLE23=Le fermier dans son pré (instru)
TTITLE24=Les instruments de ce numéro
EXTD=
EXTT0=
EXTT1=
EXTT2=
EXTT3=
EXTT4=
EXTT5=
EXTT6=
EXTT7=
EXTT8=
EXTT9=
EXTT10=
EXTT11=
EXTT12=
EXTT13=
EXTT14=
EXTT15=
EXTT16=
EXTT17=
EXTT18=
EXTT19=
EXTT20=
EXTT21=
EXTT22=
EXTT23=
EXTT24=
PLAYORDER=
